<svg width="128" height="128" viewBox="0 0 128 128" fill="none" xmlns="http://www.w3.org/2000/svg">
<rect width="128" height="128" rx="8" fill="#363636"/>
<path d="M57.5348 56.4187C62.6502 56.4187 63.6922 59.5447 63.6922 61.7235C63.6922 63.6181 62.0818 66.8389 59.1452 66.8389C55.9244 66.8389 55.9244 63.6181 53.4615 63.6181C49.3881 63.6181 47.1146 67.7862 47.1146 71.1964V89.858C47.1146 94.3103 47.9672 95.447 52.7036 95.7312C54.4087 95.7312 55.2613 96.5838 55.4508 97.6258C55.7349 98.952 54.5982 99.994 52.6089 99.994C50.7143 99.994 48.3461 99.8046 46.4515 99.8046C43.2307 99.8993 39.1574 99.8046 35.8419 99.8993C33.7578 99.994 33 98.952 33 98.0047C33 96.3943 34.2315 95.7312 35.3682 95.6365C38.2101 95.2576 38.9679 93.2683 38.9679 89.858V70.628C38.9679 67.5967 39.0627 64.7548 35.6524 64.0917C34.4209 63.9023 33.3789 63.1444 33.3789 62.2919C33.3789 59.5447 41.9045 56.8923 43.8938 56.4187C44.6517 56.324 45.5042 56.4187 46.1673 56.7029C47.0199 56.9871 47.4935 57.6502 47.3988 58.2185C47.3041 59.7342 47.2093 60.6815 47.2093 62.0077C47.1146 62.8603 47.9672 62.8603 48.1566 62.5761C50.2407 59.5447 54.2193 56.4187 57.5348 56.4187Z" fill="#FAFAFA"/>
<path d="M84.3105 34.7258C80.8056 34.7258 79.953 42.2093 79.953 44.1987V57.7449C79.953 58.408 80.2372 59.0711 81.3739 59.0711H87.9102C89.5206 59.0711 90.2785 59.9237 90.2785 60.9657C90.089 62.3866 89.3312 62.7655 87.9102 62.7655H81.3739C80.2372 62.7655 79.953 63.4286 79.953 64.0917V90.8053C79.953 94.0261 80.8056 95.3523 84.9736 95.6365C86.6788 95.8259 87.3419 96.6785 87.3419 97.8152C87.3419 98.952 86.3946 99.994 84.5 99.994C82.1318 99.8993 80.5214 99.8993 76.5428 99.8993C72.6589 99.8993 70.4801 99.994 68.4908 99.994C66.5015 100.089 65.3647 99.0467 65.3647 97.8152C65.4595 96.3943 66.4068 95.8259 67.6382 95.6365C70.9538 95.0681 71.901 93.5524 71.901 90.6158V64.0917C71.901 63.4286 71.5221 62.7655 70.3854 62.7655H68.5855C67.1646 62.7655 66.312 62.2919 66.2173 60.8709C66.2173 60.1131 66.5015 59.45 67.5435 59.0711C70.5748 58.1238 71.901 56.6081 71.901 54.2399C71.901 50.8297 72.9431 43.725 75.5007 38.3255C76.8269 35.4836 82.9843 28 88.7628 28C93.0256 28 94.2571 30.3682 94.2571 32.6417C94.2571 34.2521 92.552 36.7151 89.4259 36.7151C86.7735 36.7151 86.4893 34.7258 84.3105 34.7258Z" fill="#FAFAFA"/>
</svg>
