<svg width="591" height="141" viewBox="0 0 591 141" fill="none" xmlns="http://www.w3.org/2000/svg">
<path d="M46.62 54.36C56.34 54.36 58.32 60.3 58.32 64.44C58.32 68.04 55.26 74.16 49.68 74.16C43.56 74.16 43.56 68.04 38.88 68.04C31.14 68.04 26.82 75.96 26.82 82.44V117.9C26.82 126.36 28.44 128.52 37.44 129.06C40.68 129.06 42.3 130.68 42.66 132.66C43.2 135.18 41.04 137.16 37.26 137.16C33.66 137.16 29.16 136.8 25.56 136.8C19.44 136.98 11.7 136.8 5.4 136.98C1.44 137.16 0 135.18 0 133.38C0 130.32 2.34 129.06 4.5 128.88C9.9 128.16 11.34 124.38 11.34 117.9V81.36C11.34 75.6 11.52 70.2 5.04 68.94C2.7 68.58 0.72 67.14 0.72 65.52C0.72 60.3 16.92 55.26 20.7 54.36C22.14 54.18 23.76 54.36 25.02 54.9C26.64 55.44 27.54 56.7 27.36 57.78C27.18 60.66 27 62.46 27 64.98C26.82 66.6 28.44 66.6 28.8 66.06C32.76 60.3 40.32 54.36 46.62 54.36Z" fill="#363636"/>
<path d="M102.212 114.3V109.98C102.212 109.44 101.852 108.9 100.772 108.9C87.4519 108.72 77.7319 108.72 77.7319 117.72C77.7319 122.22 77.1919 127.8 86.9119 127.8C93.5719 127.8 102.212 121.32 102.212 114.3ZM133.352 123.66C135.512 124.56 136.052 126.54 135.152 127.62C130.832 133.56 121.832 140.04 113.192 140.04C107.432 140.04 104.372 136.44 103.112 133.02C102.752 132.12 100.952 131.94 100.232 132.66C95.7319 136.98 88.8919 140.04 80.2519 140.04C66.7519 140.04 62.2519 126.36 62.2519 119.7C62.2519 104.04 75.3919 101.52 100.772 101.34C101.852 101.34 102.212 100.8 102.212 100.26V80.28C102.212 75.24 101.852 66.24 90.6919 66.24C84.3919 66.24 76.1119 73.8 81.5119 81.18C82.7719 82.98 79.5319 87.3 73.2319 87.3C64.9519 87.3 63.5119 82.8 63.5119 80.1C63.5119 72 72.3319 65.52 80.9719 60.3C85.6519 57.78 90.5119 54.36 96.9919 54.36C112.652 54.36 117.692 66.24 117.692 74.34V118.44C117.692 123.84 118.592 127.26 122.912 127.26C125.252 127.26 127.052 126.18 128.492 124.92C129.752 123.84 131.552 122.76 133.352 123.66Z" fill="#363636"/>
<path d="M213.601 128.7C216.301 129.24 217.201 131.04 217.201 132.84C217.201 135.18 215.221 137.16 211.441 136.98C207.661 136.8 202.801 136.8 199.021 136.8C195.241 136.8 190.021 136.8 186.241 136.98C182.461 137.16 180.841 135.18 180.841 132.84C180.841 130.86 182.281 129.06 185.161 128.7C190.201 127.98 191.281 123.3 191.281 117.72V93.42C191.281 84.42 192.541 66.78 180.841 66.78C177.241 66.78 163.381 74.52 163.381 79.02V117.72C163.381 123.3 164.641 127.8 170.041 128.7C172.921 129.06 174.001 130.86 174.001 132.66C174.001 135.18 171.841 137.16 168.061 136.98C164.281 136.8 159.421 136.8 155.821 136.8C152.221 136.8 147.541 136.98 143.941 136.98C139.441 136.98 137.821 135.18 137.821 132.84C137.821 130.5 139.441 129.06 141.241 128.7C147.001 127.62 148.081 122.58 148.081 117.72V79.74C148.081 74.16 148.081 70.02 141.421 68.94C139.081 68.58 137.101 66.78 137.281 65.16C137.461 64.08 138.181 62.82 139.441 62.1C144.121 58.68 149.881 55.8 157.261 54.36C158.701 54 160.321 54.18 161.581 54.72C163.201 55.44 164.101 56.7 163.921 57.78C163.741 60.48 163.561 62.46 163.561 64.98C163.561 66.06 164.821 66.06 165.181 65.52C172.021 58.68 177.601 54.18 187.861 54.18C205.321 54.18 206.761 68.04 206.761 82.62V117.72C206.761 122.94 206.581 127.44 213.601 128.7Z" fill="#363636"/>
<path d="M300.165 131.94C301.065 134.64 298.905 136.98 294.945 136.8C292.785 136.8 289.725 136.8 287.565 136.8C284.865 136.8 281.265 136.8 278.025 136.8C276.405 136.8 274.965 136.26 274.245 135.36C272.805 133.2 271.365 131.04 269.565 128.88L250.305 102.42C249.945 102.06 248.865 101.88 248.325 102.42L247.245 103.32C246.885 103.86 246.525 104.22 246.525 104.76V117.72C246.525 123.3 247.965 127.62 253.365 128.7C256.245 129.24 257.145 130.86 257.145 132.84C257.145 135.18 255.165 137.16 251.385 136.98C247.605 136.8 242.745 136.8 238.965 136.8C235.365 136.8 231.225 136.8 227.625 136.98C222.945 137.16 221.325 135.36 221.325 132.84C221.325 129.96 223.305 129.06 225.285 128.7C230.865 127.44 231.225 122.58 231.225 117.72V25.74C231.225 19.98 231.405 15.84 224.565 14.76C222.225 14.4 220.605 12.96 220.605 11.34C220.605 6.12001 236.805 1.08001 240.585 0.179998C242.025 0 243.645 0.179998 244.905 0.720001C246.525 1.26001 247.425 2.52 247.245 3.60001C246.885 9.54001 246.525 14.58 246.525 20.7V88.2C246.525 89.64 248.145 89.82 248.865 89.1L264.345 74.16C268.125 70.56 269.925 68.4 269.925 67.32C269.925 66.06 267.765 65.88 266.145 65.52C263.445 64.98 262.545 63.36 262.545 61.56C262.725 58.68 264.885 57.06 268.845 57.24C272.625 57.24 277.485 57.24 280.365 57.24C282.885 57.24 287.565 57.24 290.805 57.24C294.945 57.06 296.925 58.68 296.925 61.56C296.745 63.9 294.405 65.16 291.705 65.7C285.225 67.14 281.445 70.74 277.485 74.34L260.565 90.54C259.485 91.62 259.485 92.88 260.385 93.96L282.345 121.68C285.765 126 290.265 127.98 296.025 128.88C298.725 129.24 299.625 130.32 300.165 131.94Z" fill="#363636"/>
<path d="M385.08 128.52C388.14 129.06 389.58 130.68 389.58 132.66C389.58 135 387.06 136.98 383.28 136.8C379.5 136.8 375.18 136.8 371.4 136.8C367.8 136.8 363.3 136.8 359.52 136.8C355.74 136.98 353.4 135 353.4 132.66C353.4 130.86 354.12 129.06 357 128.52C362.76 127.44 363.66 122.58 363.66 117.54V19.8C363.66 14.94 361.14 9.18 350.16 9.18C336.48 9.18 331.44 25.56 331.44 55.98C331.44 58.32 332.16 59.04 334.32 59.04H348C351.06 59.04 352.5 60.66 352.5 62.64C352.5 64.62 351.06 66.24 348 66.24H334.32C332.16 66.24 331.44 67.86 331.44 69.3V119.34C331.44 125.64 332.88 128.16 340.8 128.7C344.22 129.06 345.84 130.86 345.48 133.2C344.94 135.36 342.78 136.98 339.36 136.8C336.66 136.62 331.62 136.8 324.6 136.8C317.04 136.8 311.1 136.98 309.66 136.98C305.7 136.98 303.18 134.82 303.72 132.12C304.08 130.32 305.34 129.06 308.22 128.52C314.52 127.62 315.96 124.56 315.96 118.98V69.12C315.96 67.68 314.88 66.24 312.72 66.24H310.38C307.14 66.24 305.34 64.62 305.34 62.46C305.34 61.02 305.88 59.76 307.86 59.22C313.44 57.42 315.96 54.36 315.96 50.04C315.96 22.5 335.58 0 363.66 0C372.66 0 376.26 0.899999 378.06 1.62C379.5 2.16 379.86 3.42 379.86 4.14C379.32 10.08 379.14 14.58 379.14 20.7V117.72C379.14 123.3 379.86 127.62 385.08 128.52Z" fill="#363636"/>
<path d="M451.873 98.1C451.153 89.1 445.753 61.92 428.113 62.46C410.653 63 410.293 89.1 411.013 96.48C411.733 105.48 417.673 132.48 434.773 131.94C452.053 131.22 452.593 105.3 451.873 98.1ZM469.333 96.84C469.333 109.8 460.153 140.04 432.253 140.04C402.733 140.04 393.733 112.32 393.733 97.56C393.733 84.6 402.013 54.36 430.093 54.36C460.873 54.36 469.333 81.54 469.333 96.84Z" fill="#363636"/>
<path d="M585.205 59.22C588.445 59.04 590.605 61.02 590.425 63.9C590.245 65.52 588.625 67.14 586.105 67.86C580.705 69.84 579.085 73.98 577.285 79.02L556.405 137.7C555.685 139.32 553.345 140.04 551.725 140.04C549.565 140.04 547.585 139.14 547.045 137.7L531.025 93.96C530.845 93.42 529.765 93.42 529.585 93.96L512.845 137.7C512.305 139.14 510.325 140.04 507.985 140.04C506.365 140.04 503.845 139.32 503.125 137.52L482.965 80.1C481.885 76.5 480.085 70.92 474.325 68.58C471.805 67.68 470.005 66.24 470.005 64.62C469.825 62.82 470.905 61.2 473.965 60.48C477.025 59.76 482.245 59.22 485.305 59.22C488.905 59.22 493.945 59.22 497.545 59.22C501.325 59.22 503.485 60.3 504.025 62.1C504.745 63.36 503.665 64.98 501.325 66.42C499.525 67.32 498.265 68.4 497.365 69.48C496.285 70.56 496.465 72.36 497.005 74.7L510.145 114.48C510.325 115.02 511.405 115.02 511.585 114.48L523.465 78.48C524.725 74.16 523.465 69.66 517.345 68.04C513.925 67.14 511.945 64.62 513.385 62.28C514.285 60.3 516.265 59.04 519.685 59.22C523.105 59.22 527.785 59.22 531.205 59.22C534.805 59.22 539.845 59.22 543.805 59.22C547.585 59.04 549.565 60.84 549.385 63.9C549.385 65.52 546.865 67.32 544.345 68.04C542.365 68.58 541.285 69.3 540.745 70.2C539.665 72 540.385 74.34 540.925 77.22L552.985 114.3C552.985 114.84 554.065 114.84 554.245 114.3L567.025 76.68C568.465 72.72 568.825 68.94 564.145 67.68C560.905 66.96 559.285 64.62 560.365 62.46C560.725 59.76 563.425 59.04 565.225 59.22C567.565 59.22 572.245 59.22 574.765 59.22C577.645 59.22 582.325 59.22 585.205 59.22Z" fill="#363636"/>
</svg>
